<svg width="136" height="50" viewBox="0 0 136 50" fill="none" xmlns="http://www.w3.org/2000/svg">
<rect x="2" y="13.3678" width="130" height="35" rx="5" transform="rotate(-5.01662 2 13.3678)" stroke="url(#paint0_linear)" stroke-width="2"/>
<path d="M14.3254 40.3936L23.2909 39.6066L23.0286 36.6181L17.3504 37.1165L16.7864 30.6912L21.2991 30.2951L21.0367 27.3066L16.5241 27.7027L16.0388 22.174L21.7169 21.6755L21.4546 18.687L12.4891 19.474L14.3254 40.3936ZM26.4359 39.3305L29.5439 39.0577L31.3544 31.5506L31.4142 31.5454L34.4451 38.6275L37.9118 38.3231L33.1772 27.9574L35.8961 17.4193L32.7881 17.6922L31.1097 24.6456L31.0499 24.6508L28.2455 18.0909L24.7789 18.3952L29.2921 28.2985L26.4359 39.3305ZM45.7567 37.9357C48.9245 37.6576 50.4302 35.598 50.1468 32.3704L49.8871 29.4118L46.7791 29.6847L47.0598 32.8824C47.1804 34.2571 46.5702 34.8527 45.584 34.9393C44.5978 35.0259 43.8931 34.5456 43.7724 33.1709L42.7467 21.4859C42.626 20.1111 43.2336 19.4856 44.2199 19.399C45.2061 19.3125 45.9134 19.8226 46.034 21.1973L46.2465 23.618L49.3546 23.3452L49.1605 21.1337C48.8771 17.9061 47.0357 16.1403 43.8679 16.4184C40.7 16.6965 39.1944 18.756 39.4777 21.9836L40.4641 33.2204C40.7474 36.448 42.5888 38.2137 45.7567 37.9357ZM54.6306 36.8555L63.3271 36.0922L63.0648 33.1036L57.6556 33.5785L56.0816 15.6474L52.7942 15.936L54.6306 36.8555ZM71.8034 35.6493C75.031 35.3659 76.5366 33.3064 76.2428 29.9593L74.842 14.0006L71.6741 14.2787L73.096 30.4764C73.2272 31.9707 72.6468 32.5637 71.6008 32.6555C70.5548 32.7473 69.88 32.2645 69.7489 30.7702L68.327 14.5725L65.0397 14.8611L66.4405 30.8197C66.7343 34.1668 68.5758 35.9326 71.8034 35.6493ZM85.4114 34.4547C88.639 34.1714 90.2044 32.1066 89.9053 28.6997C89.6771 26.0997 88.6635 24.5022 85.7016 22.3229C83.3846 20.629 82.6002 19.5836 82.4664 18.0595C82.3405 16.625 82.8883 16.0047 83.9343 15.9129C84.9803 15.8211 85.6278 16.3364 85.759 17.8307L85.8535 18.9065L88.9615 18.6337L88.8854 17.767C88.5916 14.4199 86.8398 12.6463 83.6421 12.927C80.4444 13.2077 78.9088 15.2699 79.1974 18.5572C79.4073 20.948 80.4534 22.5728 83.4153 24.7521C85.7323 26.446 86.4868 27.494 86.639 29.2274C86.7754 30.7814 86.1651 31.377 85.1191 31.4689C84.0732 31.5607 83.3685 31.0805 83.2373 29.5862L83.1114 28.1517L80.0033 28.4245L80.1083 29.6199C80.4021 32.9671 82.1838 34.7381 85.4114 34.4547ZM94.3229 33.3713L97.6102 33.0828L95.7739 12.1632L92.4865 12.4518L94.3229 33.3713ZM104.465 32.481L108.829 32.098L110.16 10.9004L107.142 11.1653L106.414 27.5818L106.355 27.5871L102.778 11.5483L99.4612 11.8395L104.465 32.481ZM115.667 31.4977L124.633 30.7107L124.371 27.7222L118.692 28.2206L118.128 21.7953L122.641 21.3992L122.379 18.4107L117.866 18.8068L117.381 13.2781L123.059 12.7796L122.797 9.79112L113.831 10.5781L115.667 31.4977Z" fill="url(#paint1_linear)"/>
<defs>
<linearGradient id="paint0_linear" x1="96.3702" y1="46.7078" x2="91.9017" y2="8.64339" gradientUnits="userSpaceOnUse">
<stop stop-color="#30E650"/>
<stop offset="0.6" stop-color="#9FED26"/>
<stop offset="1" stop-color="#A2F81C"/>
</linearGradient>
<linearGradient id="paint1_linear" x1="99.0115" y1="39.3242" x2="91.2316" y2="1.79628" gradientUnits="userSpaceOnUse">
<stop stop-color="#30E650"/>
<stop offset="0.6" stop-color="#9FED26"/>
<stop offset="1" stop-color="#A2F81C"/>
</linearGradient>
</defs>
</svg>
