<svg width="23" height="22" viewBox="0 0 23 22" fill="none" xmlns="http://www.w3.org/2000/svg">
<path d="M5 21.2422C5.59766 21.6992 6.32422 21.5586 7.09766 20.9844L11.6211 17.668L16.1328 20.9844C16.918 21.5586 17.6445 21.6992 18.2422 21.2422C18.8281 20.7969 18.9453 20.0586 18.6406 19.168L16.8477 13.8711L21.4062 10.6016C22.1797 10.0508 22.5312 9.39453 22.2969 8.69141C22.0508 7.98828 21.3945 7.64844 20.4453 7.66016L14.8672 7.70703L13.168 2.36328C12.875 1.44922 12.3594 0.933594 11.6211 0.933594C10.8828 0.933594 10.3789 1.44922 10.0859 2.36328L8.38672 7.70703L2.79688 7.66016C1.84766 7.64844 1.19141 7.98828 0.957031 8.67969C0.699219 9.39453 1.0625 10.0508 1.83594 10.6016L6.39453 13.8711L4.60156 19.168C4.29688 20.0586 4.41406 20.7969 5 21.2422Z" fill="white"/>
</svg>
